<svg width="117" height="23" viewBox="0 0 117 23" fill="none" xmlns="http://www.w3.org/2000/svg">
<g clip-path="url(#clip0_1161_9739)">
<path d="M111.941 17.6205C110.556 19.003 109.159 20.3739 107.759 21.742C107.472 22.0404 107.173 22.3359 106.85 22.6006C106.666 22.7495 106.466 22.874 106.253 22.9691H98.5078C99.8615 21.6376 108.961 12.7334 110.315 11.4054C110.668 11.7546 111.202 12.2812 111.842 12.9202C113.023 14.0994 113.273 16.281 111.941 17.6205Z" fill="url(#paint0_linear_1161_9739)"/>
<path d="M116.738 12.3389C116.615 12.6824 116.431 13.0029 116.193 13.2792C114.799 14.746 113.376 16.1899 111.942 17.6195C113.273 16.2794 113.023 14.0977 111.842 12.9185C111.202 12.2795 110.668 11.7529 110.316 11.4037C110.316 11.4037 110.316 11.4037 110.316 11.4009C108.958 10.0807 100.145 1.39915 98.7939 0.0704041H106.253C106.348 0.121207 106.443 0.182742 106.532 0.247856C106.729 0.39454 106.925 0.549096 107.106 0.717959C110.063 3.63734 113.032 6.5481 116.001 9.45317C116.308 9.74872 116.546 10.1094 116.707 10.5007C116.948 11.0861 116.953 11.7451 116.738 12.3389Z" fill="#52D4BD"/>
<path fill-rule="evenodd" clip-rule="evenodd" d="M86.6981 1.65118C89.6137 1.67972 92.5048 2.73206 94.516 4.85457C97.9892 8.34547 97.9821 14.4976 94.5657 18.0263C92.503 20.2173 89.4979 21.286 86.4951 21.2689C83.4899 21.286 80.4848 20.2173 78.4244 18.0263C75.008 14.4976 74.9998 8.34478 78.4741 4.85457C80.4819 2.73206 83.3753 1.68043 86.2915 1.65118H86.6981ZM90.2976 16.1392C91.6121 15.0341 92.4375 13.4381 92.5147 11.7429C92.5691 10.5115 92.279 9.26582 91.6407 8.20851L91.6302 8.21851C90.7726 7.09697 89.674 6.07175 88.253 5.71214C87.7253 5.55447 87.1766 5.47171 86.629 5.45458C86.6144 5.45458 86.5992 5.45435 86.5846 5.45411C86.5547 5.45364 86.5243 5.45316 86.4951 5.45458C86.4652 5.45316 86.4354 5.45364 86.4056 5.45411C86.3904 5.45435 86.3757 5.45458 86.3611 5.45458C85.81 5.47171 85.2625 5.55447 84.7366 5.71214C83.3156 6.071 82.2152 7.09623 81.3594 8.21851C81.357 8.21713 81.3553 8.21535 81.3535 8.21362C81.3518 8.21161 81.35 8.20966 81.3471 8.20851C80.1864 10.1277 80.1765 12.6776 81.2997 14.621L81.3079 14.6307C81.8601 15.3175 82.4211 16.0152 83.1764 16.4988C84.1533 17.1252 85.3216 17.4363 86.4939 17.4434C87.6645 17.4363 88.8351 17.1252 89.8114 16.4988C89.9829 16.3897 90.1437 16.2676 90.2976 16.1392Z" fill="white"/>
<path fill-rule="evenodd" clip-rule="evenodd" d="M10.8584 1.65118C13.7739 1.67972 16.6653 2.73206 18.6763 4.85457C22.1496 8.34547 22.1423 14.4976 18.7257 18.0263C16.6632 20.2173 13.6581 21.286 10.6552 21.2689C7.65012 21.286 4.64508 20.2173 2.58465 18.0263C-0.831916 14.4976 -0.839925 8.34478 2.63418 4.85457C4.64217 2.73206 7.53581 1.68043 10.452 1.65118H10.8584ZM14.4578 16.1392C15.7724 15.0341 16.5976 13.4381 16.6748 11.7429C16.7294 10.5115 16.4396 9.26582 15.8008 8.20851L15.7906 8.21851C14.9327 7.09697 13.8343 6.07175 12.4134 5.71214C11.8853 5.55447 11.3369 5.47171 10.7892 5.45458C10.7744 5.45458 10.7596 5.45435 10.7447 5.45411C10.7148 5.45364 10.6849 5.45316 10.6552 5.45458C10.6255 5.45316 10.5956 5.45364 10.5658 5.45411C10.5508 5.45435 10.536 5.45458 10.5212 5.45458C9.97058 5.47171 9.4229 5.55447 8.89704 5.71214C7.47608 6.071 6.37558 7.09623 5.5198 8.21851C5.51741 8.21713 5.51567 8.21535 5.51396 8.21362C5.51202 8.21161 5.51013 8.20966 5.50741 8.20851C4.34647 10.1277 4.337 12.6776 5.46007 14.621L5.46789 14.6307C6.02036 15.3175 6.58161 16.0152 7.33697 16.4988C8.31362 17.1252 9.48187 17.4363 10.6545 17.4434C11.8249 17.4363 12.9953 17.1252 13.972 16.4988C14.1431 16.3897 14.3041 16.2676 14.4578 16.1392Z" fill="white"/>
<path d="M24.4643 20.9661C24.4491 14.6428 24.4309 8.31882 24.4702 1.99835C28.9413 2.02832 33.4161 2.0012 37.888 2.01048C37.888 2.02403 37.888 2.0383 37.888 2.05186C37.888 3.98031 36.2915 5.54063 34.3229 5.54277C32.5429 5.54419 30.7621 5.55062 28.9821 5.53064C28.9945 7.18515 28.9763 8.84316 28.9916 10.4977C31.9551 10.5127 34.9216 10.5034 37.8887 10.507V10.5569C37.8887 12.4818 36.2981 14.0428 34.3331 14.0471C32.5552 14.0506 30.7782 14.055 29.0011 14.0243C28.9814 15.1729 28.9829 16.3209 28.9843 17.4695C28.9865 19.3901 27.4024 20.9512 25.4417 20.9611C25.1155 20.9611 24.7899 20.9633 24.4643 20.9661Z" fill="white"/>
<path d="M42.0251 20.9667C42.047 14.6462 42.0128 8.32221 42.0434 2.00177C46.5182 2.0139 50.996 2.02317 55.473 1.99606C55.4722 2.02532 55.4722 2.05457 55.4722 2.08382C55.4518 3.99872 53.8787 5.55547 51.9238 5.55618C50.1321 5.55689 48.339 5.51908 46.5488 5.53692C46.567 7.18854 46.5641 8.84305 46.5583 10.4947C49.5313 10.5125 52.5036 10.5125 55.4795 10.4947C55.4788 10.5296 55.4787 10.5639 55.478 10.5989C55.4496 12.5095 53.8706 14.0512 51.9202 14.0505C50.1344 14.0505 48.3485 14.0348 46.5641 14.0477C46.5444 15.1792 46.5626 16.3122 46.5714 17.4451C46.5852 19.3807 44.9865 20.9624 43.0106 20.9589C42.6821 20.9574 42.3536 20.9589 42.0251 20.9667Z" fill="white"/>
<path d="M61.445 2.00513C65.7378 2.01441 70.6067 2.01512 74.432 2.00085V2.03653C74.4467 3.96855 72.8525 5.54171 70.8799 5.54314C69.9948 5.54385 69.1103 5.54456 68.2252 5.54456C68.2041 9.51992 68.2228 13.4967 68.217 17.4727C68.2141 19.3898 66.6357 20.9479 64.6789 20.9601C64.349 20.9622 64.019 20.9651 63.6891 20.9679C63.6616 15.8204 63.7142 10.6735 63.6616 5.52601C62.3102 5.55027 59.2232 5.54741 57.875 5.53529L57.8757 5.46038C57.8954 3.54333 59.4882 2.00085 61.445 2.00513Z" fill="white"/>
</g>
<defs>
<linearGradient id="paint0_linear_1161_9739" x1="105.865" y1="9.21709" x2="97.5283" y2="21.2302" gradientUnits="userSpaceOnUse">
<stop stop-color="#267567"/>
<stop offset="0.0703653" stop-color="#329281"/>
<stop offset="0.1482" stop-color="#48B8A4"/>
<stop offset="0.250633" stop-color="#4DCCB5"/>
<stop offset="0.34412" stop-color="#52D4BD"/>
<stop offset="0.534338" stop-color="#52D4BD"/>
<stop offset="1" stop-color="#52D4BD"/>
</linearGradient>
<clipPath id="clip0_1161_9739">
<rect width="117" height="23" fill="white"/>
</clipPath>
</defs>
</svg>
